<?xml version="1.0" standalone="no"?>
<!DOCTYPE svg PUBLIC "-//W3C//DTD SVG 1.1//EN"
   "http://www.w3.org/Graphics/SVG/1.1/DTD/svg11.dtd">
<svg
   xmlns="http://www.w3.org/2000/svg"
   xmlns:xlink="http://www.w3.org/1999/xlink"
   viewBox="0 0 620 950"
   version="1.1">
   <rect width="100%" height="100%" fill="white"/>
   <defs>
      <style><![CDATA[
.line {
   stroke: #4677bf;
   fill: none;
   marker-end: url(#arrow);
}
.label {
   font-family: sans-serif;
   font-size: 8pt;
}
#arrow {
   stroke: #4677bf;
   fill: #4677bf;
}
#process, #offlineprocess, #terminal, #connector, #decision {
   fill: #e8eef7;
   stroke: #000000;
}
      ]]></style>

   <!-- Flowcharting block definitions -->

      <g id="process">
         <rect width="100" height="60" stroke-width="1"/>
      </g>

      <g id="offlineprocess">
         <rect width="100" height="60" stroke-width="1"/>
         <path d="M 12 0 V 60 M 88 0 V 60"/>
      </g>

      <g id="terminal">
         <rect id="terminal"
               x="0"
               y="10"
               width="100"
               height="40"
               rx="20"
               ry="20"
               />
      </g>

      <g id="decision">
         <path d="M 50 0 L 100 30 L 50 60 L 0 30 z"/>
      </g>

      <g id="connector">
         <circle cx="50" cy="30" r="20"/>
      </g>

      <marker id="arrow" markerWidth="16" markerHeight="8"
              refX="0" refY="4" orient="auto"
              markerUnits="stroke-width">
         <path d="M 0 0 8 4 0 8z"/>
      </marker>

      <!-- End of flowcharting block definitions -->

   </defs>

   <!-- Row 1 -->

   <g id="row1" transform="translate(10,00)">
      <g transform="translate(0,20)">
         <use xlink:href="#connector"/>
         <text x="47" y="34" class="label">1</text>
         <path class="line" d="M 50 50 v 20"/>
      </g>
   </g>
   
   <!-- Row 2 -->

   <g id="row2" transform="translate(10,100)">

      <g>
         <use xlink:href="#decision"/>
         <text class="label">
            <tspan x="25" y="25">Shutdown</tspan>
            <tspan x="22" y="40">command?</tspan>
         </text>
         <path class="line" d="M 100 30 h 30"/>
         <text x="110" y="25" class="label">Yes</text>
         <path class="line" d="M 50 60 v 30"/>
         <text x="25" y="80" class="label">No</text>
      </g>

      <g transform="translate(140,0)">
         <use xlink:href="#terminal"/>
         <text class="label">
            <tspan x="40" y="33">Stop</tspan>
         </text>
      </g>
   </g>

   <!-- Row 3 -->

   <g id="row3" transform="translate(10,200)">

      <g>
         <use xlink:href="#process"/>
         <text class="label">
            <tspan x="25" y="18">Check for</tspan>
            <tspan x="6"  y="33">remaining time in</tspan>
            <tspan x="15" y="48">batch window</tspan>
         </text>
         <path class="line" d="M 50 60 v 30"/>
      </g>

   </g>
   
   <!-- Row 4 -->

   <g id="row4" transform="translate(10,300)">

      <g>
         <use xlink:href="#decision"/>
         <text class="label">
            <tspan x="16" y="33">Any time left?</tspan>
         </text>
         <path class="line" d="M 100 30 h 30"/>
         <text x="110" y="25" class="label">No</text>
         <path class="line" d="M 50 60 v 30"/>
         <text x="25" y="75" class="label">Yes</text>
      </g>

      <g transform="translate(140,0)">
         <use xlink:href="#offlineprocess"/>
         <text class="label">
            <tspan x="22" y="25">Sleep for a</tspan>
            <tspan x="35" y="40">while</tspan>
         </text>
         <path class="line" d="M 100 30 h 30"/>
      </g>

      <g transform="translate(250,0)">
         <use xlink:href="#connector"/>
         <text x="47" y="34" class="label">1</text>
      </g>

   </g>

   <!-- Row 5 -->

   <g id="row5" transform="translate(10,400)">
      <g>
         <use xlink:href="#process"/>
         <text class="label">
            <tspan x="25" y="25">Check WIP</tspan>
            <tspan x="6"  y="40">directory for a file</tspan>
         </text>
         <path class="line" d="M 50 60 v 30"/>
      </g>
   </g>

   <!-- Row 6 -->

   <g id="row6" transform="translate(10,500)">
      <g transform="translate(0,0)">
         <use xlink:href="#decision"/>
         <text class="label">
            <tspan x="15" y="33">WIP file exists?</tspan>
         </text>
         <path class="line" d="M 100 30 h 30"/>
         <text x="110" y="25" class="label">No</text>
         <path class="line" d="M 50 60 v 130"/>
         <text x="25" y="75" class="label">Yes</text>
      </g>

      <g transform="translate(140,0)">
         <use xlink:href="#process"/>
         <text class="label">
            <tspan x="10" y="18">Check drop zone</tspan>
            <tspan x="10" y="33">for existence of</tspan>
            <tspan x="36" y="48">files</tspan>
         </text>
         <path class="line" d="M 100 30 h 30"/>
      </g>

      <g transform="translate(280,0)">
         <use xlink:href="#decision"/>
         <text class="label">
            <tspan x="22" y="33">File exists?</tspan>
         </text>
         <path class="line" d="M 100 30 h 30"/>
         <text x="110" y="25" class="label">No</text>
         <path class="line" d="M 50 60 v 30"/>
         <text x="25" y="75" class="label">Yes</text>
      </g>

      <g transform="translate(420,0)">
         <use xlink:href="#offlineprocess"/>
         <text class="label">
            <tspan x="22" y="25">Sleep for a</tspan>
            <tspan x="35" y="40">while</tspan>
         </text>
         <path class="line" d="M 100 30 h 30"/>
      </g>

      <g transform="translate(530,0)">
         <use xlink:href="#connector"/>
         <text x="47" y="34" class="label">1</text>
      </g>
   </g>

   <!-- Row 7 -->

   <g id="row7" transform="translate(10,600)">

      <g transform="translate(140,0)">
         <use xlink:href="#process"/>
         <text class="label">
            <tspan x="22" y="25">Save cursor</tspan>
            <tspan x="13" y="40">position = zero</tspan>
         </text>
         <path class="line" d="M 0 30 h -80"/>
      </g>

      <g transform="translate(280,0)">
         <use xlink:href="#process"/>
         <text class="label">
            <tspan x="25" y="18">Move first</tspan>
            <tspan x="12" y="33">available file to</tspan>
            <tspan x="18" y="48">WIP directory</tspan>
         </text>
         <path class="line" d="M 0 30 h -30"/>
      </g>
   </g>

   <!-- Row 8 -->

   <g id="row8" transform="translate(10,700)">
      <g>
         <use xlink:href="#process"/>
         <text class="label">
            <tspan x="6" y="25">Open file in WIP</tspan>
            <tspan x="25" y="40">directory</tspan>
         </text>
         <path class="line" d="M 50 60 v 30"/>
      </g>
   </g>

   <!-- Row 9 -->

   <g id="row9" transform="translate(10,800)">
      <g>
         <use xlink:href="#process"/>
         <text class="label">
            <tspan x="15" y="18">Restore cursor</tspan>
            <tspan x="17" y="33">position from</tspan>
            <tspan x="19" y="48">saved value</tspan>
         </text>
         <path class="line" d="M 50 60 v 20"/>
      </g>
   </g>

   <!-- Row 10 -->

   <g id="row10" transform="translate(10,900)">
      <g transform="translate(0,-20)">
         <use xlink:href="#connector"/>
         <text x="47" y="34" class="label">2</text>
      </g>
   </g>

</svg>
